<?xml version="1.0" encoding="UTF-8"?>
<svg width="145.71mm" height="24.461mm" version="1.1" viewBox="0 0 145.71 24.461" xmlns="http://www.w3.org/2000/svg">
 <g transform="translate(-30.045 -130.42)">
  <g transform="matrix(.97708 0 0 .97708 6.2858 3.5491)" fill="#29978c" stroke-width="1.549">
   <path d="m173.21 134.7c-11.737 7.5916-10.708 17.618-10.245 20.087h5.4684c-2.3187-7.5096 4.7764-20.087 4.7764-20.087z"/>
   <path d="m173.45 131.55c-11.094 3.9963-13.625 9.6578-13.625 9.6578s2.5651 5.3393 1.8526 7.6039c2.9554-11.949 11.772-17.262 11.772-17.262z"/>
   <path d="m145.96 134.17s7.4722 13.237 4.5788 20.66h5.5422c0 2e-3 3.3613-11.939-10.121-20.66z"/>
   <path d="m148.21 129.93s8.9105 15.792 5.7025 24.906h6.7236c0.46364-2.0708 2.6875-15.132-12.426-24.906z"/>
  </g>
  <g transform="matrix(.91684 0 0 .91684 -99.607 -281.62)" fill="#fff" aria-label="PLAZA">
   <path d="m147.89 467.33v8.76h-6.48v-26.68h12q4.68 0 7.36 2.12t2.68 6.56-2.68 6.84-7.36 2.4zm0-5h4.72q1.04 0 1.76-0.28 0.76-0.28 1.2-0.8t0.64-1.2q0.24-0.72 0.24-1.52 0-0.96-0.24-1.68-0.2-0.72-0.64-1.28t-1.2-0.84q-0.72-0.28-1.76-0.28h-4.72z"/>
   <path d="m167.97 476.09v-26.68h6.48v21.6h11.6v5.08z"/>
   <path d="m187.85 476.09 10.08-26.68h7.08l9.44 26.68h-6.64l-8.52-25.16 3.16-0.28-8.48 25.44zm5.68-5.76 1.32-4.76h12.12l0.6 4.76z"/>
   <path d="m217.13 476.09v-4.72l14.12-18.16 1.68 1.32h-15.6v-5.12h20.76v4.64l-13.44 17.84-2.12-0.84h15.56v5.04z"/>
   <path d="m240.85 476.09 10.08-26.68h7.08l9.44 26.68h-6.64l-8.52-25.16 3.16-0.28-8.48 25.44zm5.68-5.76 1.32-4.76h12.12l0.6 4.76z"/>
  </g>
 </g>
</svg>
