<?xml version="1.0" encoding="UTF-8"?>
<svg width="26.86mm" height="24.335mm" version="1.1" viewBox="0 0 26.86 24.335" xmlns="http://www.w3.org/2000/svg">
 <g transform="translate(-148.9 -130.5)">
  <g transform="matrix(.97708 0 0 .97708 6.2858 3.5491)" fill="#29978c" stroke-width="1.549">
   <path d="m173.21 134.7c-11.737 7.5916-10.708 17.618-10.245 20.087h5.4684c-2.3187-7.5096 4.7764-20.087 4.7764-20.087z"/>
   <path d="m173.45 131.55c-11.094 3.9963-13.625 9.6578-13.625 9.6578s2.5651 5.3393 1.8526 7.6039c2.9554-11.949 11.772-17.262 11.772-17.262z"/>
   <path d="m145.96 134.17s7.4722 13.237 4.5788 20.66h5.5422c0 2e-3 3.3613-11.939-10.121-20.66z"/>
   <path d="m148.21 129.93s8.9105 15.792 5.7025 24.906h6.7236c0.46364-2.0708 2.6875-15.132-12.426-24.906z"/>
  </g>
 </g>
</svg>
