<?xml version="1.0" standalone="no"?>
<!DOCTYPE svg PUBLIC "-//W3C//DTD SVG 20010904//EN"
 "http://www.w3.org/TR/2001/REC-SVG-20010904/DTD/svg10.dtd">
<svg version="1.0" xmlns="http://www.w3.org/2000/svg"
 width="700.000000pt" height="700.000000pt" viewBox="0 0 700.000000 700.000000"
 preserveAspectRatio="xMidYMid meet">
<metadata>
Created by potrace 1.14, written by Peter Selinger 2001-2017
</metadata>
<g transform="translate(0.000000,700.000000) scale(0.100000,-0.100000)"
fill="#000000" stroke="none">
<path d="M1210 6417 c0 -2 21 -41 46 -88 124 -230 342 -680 505 -1044 83 -185
297 -715 329 -815 5 -14 27 -77 50 -140 74 -205 205 -608 224 -691 3 -9 13
-47 25 -85 70 -239 154 -615 200 -889 25 -149 32 -198 46 -330 4 -33 8 -71 10
-85 12 -82 19 -246 20 -465 0 -331 -6 -410 -61 -730 -10 -57 -64 -253 -89
-323 -14 -38 -25 -73 -25 -78 0 -5 333 -9 772 -9 l772 0 13 50 c7 28 15 66 18
85 3 19 7 42 10 50 2 8 7 38 10 65 4 28 9 59 10 70 2 11 6 47 10 80 4 33 9 69
11 80 18 92 25 646 10 825 -12 154 -23 257 -30 300 -3 14 -7 46 -10 72 -5 38
-20 123 -50 293 -12 66 -82 337 -112 435 -97 316 -172 505 -319 805 -283 577
-657 1088 -1156 1578 -233 229 -358 340 -609 538 -191 152 -630 462 -630 446z"/>
<path d="M6830 5991 c-265 -105 -443 -179 -570 -237 -227 -104 -558 -275 -717
-370 -17 -10 -57 -34 -90 -53 -155 -91 -466 -305 -623 -429 -290 -231 -554
-490 -733 -722 -110 -142 -220 -319 -214 -345 7 -31 51 -130 60 -133 4 -2 7
-9 7 -16 0 -7 18 -53 39 -103 127 -292 262 -711 305 -948 28 -149 34 -212 36
-345 l1 -75 38 135 c131 464 359 1019 578 1410 11 19 37 67 58 105 21 39 51
89 67 112 15 23 28 44 28 47 0 16 251 391 359 536 295 398 637 768 997 1080
66 58 130 112 140 120 84 68 243 186 307 229 42 29 77 55 77 57 0 2 -1 4 -2 3
-2 0 -68 -27 -148 -58z"/>
<path d="M10 5465 c0 -4 15 -35 34 -68 114 -209 297 -591 427 -892 55 -126
104 -239 108 -250 5 -11 25 -60 44 -110 19 -49 47 -121 62 -160 99 -254 213
-599 291 -878 45 -165 114 -454 133 -562 6 -33 13 -71 16 -85 3 -13 7 -40 10
-60 3 -20 7 -45 9 -55 3 -18 11 -67 22 -150 11 -85 24 -217 29 -305 6 -88 6
-383 1 -445 -16 -179 -16 -180 -37 -305 -15 -88 -64 -278 -89 -342 -11 -29
-20 -54 -20 -55 0 -2 286 -3 635 -3 l634 0 10 38 c10 41 18 79 26 132 3 19 7
46 10 60 3 14 7 48 11 75 3 28 7 61 9 75 18 120 24 484 11 665 -11 155 -24
287 -31 315 -2 8 -7 35 -10 60 -8 62 -44 248 -55 285 -5 17 -11 41 -14 55 -15
88 -108 383 -167 533 -370 930 -1022 1701 -2004 2368 -102 70 -105 71 -105 64z"/>
<path d="M6856 5214 c-633 -434 -1145 -931 -1502 -1459 -81 -120 -184 -283
-184 -291 0 -2 -12 -23 -26 -45 -43 -68 -179 -346 -229 -468 -63 -155 -117
-310 -161 -461 -19 -69 -64 -249 -68 -276 -3 -18 -10 -53 -15 -76 -46 -203
-74 -506 -75 -783 0 -223 19 -457 50 -619 13 -70 26 -133 30 -146 4 -14 76
-16 639 -16 349 0 635 2 635 3 0 2 -6 19 -14 37 -14 34 -60 189 -71 241 -21
94 -44 244 -50 312 -3 43 -8 94 -11 113 -6 49 -6 361 1 440 7 100 17 203 20
220 1 8 6 46 9 83 4 37 9 78 12 90 2 12 6 39 9 62 3 22 8 47 10 55 2 8 7 35
10 60 3 25 8 52 11 61 3 10 6 30 9 45 2 16 9 52 15 79 6 28 14 61 16 75 11 58
88 355 125 485 92 318 283 858 394 1110 7 16 41 95 75 175 34 80 75 172 90
205 15 33 38 83 50 110 36 80 225 461 284 573 30 56 54 102 53 102 -1 -1 -65
-44 -141 -96z"/>
</g>
</svg>
